<svg id="Capa_1" enable-background="new 0 0 510.089 510.089" height="512" viewBox="0 0 510.089 510.089" width="512" xmlns="http://www.w3.org/2000/svg"><path d="m230.485 79.78c-64.52 0-117.011 52.49-117.011 117.01 0 38.212 18.167 73.24 48.974 95.197l5.411 80.922c.527 7.878 7.071 13.999 14.967 13.999h95.312c7.896 0 14.439-6.121 14.967-13.999l5.411-80.918c30.811-21.957 48.98-56.987 48.98-95.201-.001-64.52-52.491-117.01-117.011-117.01zm33.622 277.128h-67.251l-3.898-58.296h75.048zm15.477-88.296h-34.099v-47.423l9.207 5.316c7.174 4.143 16.347 1.685 20.49-5.49s1.685-16.349-5.49-20.49l-9.211-5.318 9.211-5.318c7.175-4.142 9.633-13.315 5.49-20.49-4.143-7.176-13.316-9.633-20.49-5.49l-9.207 5.316v-10.634c0-8.284-6.716-15-15-15s-15 6.716-15 15v10.638l-9.214-5.32c-7.174-4.144-16.349-1.684-20.49 5.49-4.143 7.175-1.685 16.349 5.49 20.49l9.211 5.318-9.211 5.318c-7.175 4.142-9.633 13.315-5.49 20.49 4.142 7.175 13.316 9.633 20.49 5.49l9.214-5.32v47.427h-34.1c-23.811-16.253-37.911-42.802-37.911-71.822 0-47.978 39.033-87.01 87.011-87.01s87.01 39.032 87.01 87.01c0 29.02-14.1 55.568-37.911 71.822z"/><path d="m489.959 299.483-39.286-68.688c-.671-1.403-1.001-2.972-.955-4.555 2.885-98.929-54.376-182.348-145.875-212.519-117.122-38.63-255.709 3.79-282.441 133.821-19.339 94.058 8.502 134.513 40.703 172.066 14.81 17.271 25.51 29.751 25.838 49.154.743 43.652-12.692 89.99-24.095 121.177-3.573 9.772 3.671 20.15 14.088 20.15h206.688c7.284 0 13.516-5.233 14.774-12.408 2.491-14.2 5.422-24.677 7.922-31.955 16.915 8.896 35.828 16.152 53.873 20.551 27.29 6.653 46.055 5.58 55.775-3.19 15.569-14.05 21.933-32.699 33.548-128.153l13.573-1.932c25.264-3.592 39.098-31.371 25.87-53.519zm-30.094 23.817-15.752 2.242c-12.136 1.727-21.641 11.435-23.115 23.609-1.466 12.107-2.838 22.833-4.134 32.366-14.924.966-29.994-2.148-43.335-9.079-7.354-3.822-16.407-.955-20.226 6.396-3.819 7.352-.956 16.407 6.396 20.226 16.044 8.335 33.917 12.628 51.874 12.628.272 0 .543-.008.815-.01-5.862 35.479-10.095 43.82-14.74 48.403-2.977.775-13.551 1.356-33.441-4.001-19.321-5.205-39.678-14.089-55.849-24.373-6.933-4.409-16.118-2.42-20.61 4.457-.992 1.521-8.962 14.362-15.456 43.925h-173.362c10.185-31.858 19.68-72.476 19.01-111.835-.511-30.215-17.058-49.513-33.061-68.175-25.463-29.695-51.793-60.402-34.092-146.497 23.524-114.41 147.587-143.054 243.66-111.37 78.595 25.917 127.771 97.809 125.284 183.154-.196 6.712 1.313 13.405 4.364 19.354.104.203.213.404.326.603l39.575 69.194c.061.106.123.212.187.317 2.357 3.895-.412 7.912-4.318 8.466z"/></svg>