<?xml version="1.0" standalone="no"?>
<svg
  width="600"
  height="600"
  viewBox="0 0 600 600"
  xmlns="http://www.w3.org/2000/svg"
>
  <g transform="translate(300,300)">
    <path d="M56.6,-113.6C56.6,-88.1,28.3,-44,38.1,-18.6C47.8,6.9,95.7,13.8,131.8,45.1C168,76.4,192.4,132.2,174.5,149C156.5,165.9,96.2,143.9,50.8,143.7C5.5,143.6,-24.7,165.4,-37.8,151.3C-51,137.2,-47,87.3,-57,58.8C-67,30.4,-90.9,23.4,-109.8,5.3C-128.7,-12.8,-142.6,-42.1,-146.6,-80.9C-150.6,-119.7,-144.8,-168,-118.7,-181.5C-92.6,-195.1,-46.3,-174.1,-9,-160C28.3,-146,56.6,-139.1,56.6,-113.6Z" fill="#313944" />
  </g>
</svg>
  