<?xml version="1.0" standalone="no"?>
<svg
  width="600"
  height="600"
  viewBox="0 0 600 600"
  xmlns="http://www.w3.org/2000/svg"
>
  <g transform="translate(300,300)">
    <path d="M110.6,-144.8C147,-148.8,182.7,-124.2,179.8,-93.1C176.9,-62,135.5,-24.2,136.1,24.5C136.8,73.2,179.5,132.9,167.5,143.1C155.5,153.3,88.7,114.1,47.6,95.7C6.6,77.4,-8.8,80,-44.2,95C-79.6,110,-135,137.5,-144.7,125.7C-154.4,114,-118.3,62.9,-127.3,16.8C-136.3,-29.4,-190.5,-70.6,-178.4,-74.9C-166.2,-79.3,-87.7,-46.8,-46.9,-40.8C-6.1,-34.9,-3.1,-55.4,17,-81.9C37.1,-108.4,74.2,-140.9,110.6,-144.8Z" fill="#313944" />
  </g>
</svg>
  