<?xml version="1.0" standalone="no"?>
<svg
  width="600"
  height="600"
  viewBox="0 0 600 600"
  xmlns="http://www.w3.org/2000/svg"
>
  <g transform="translate(300,300)">
    <path d="M116.1,-196.5C140.7,-164.9,144,-116.1,142.6,-77.4C141.1,-38.7,134.9,-10.1,122.1,11.3C109.2,32.6,89.7,46.8,68.6,44.6C47.4,42.5,24.6,24.1,0.2,57.2C-24.2,90.2,-50.1,174.6,-68.8,189.6C-87.5,204.6,-98.9,150.1,-134.2,113.8C-169.6,77.5,-228.8,59.5,-245.3,27.6C-261.8,-4.2,-235.5,-49.9,-193.9,-66.7C-152.3,-83.6,-95.3,-71.7,-60.5,-98.6C-25.6,-125.5,-12.8,-191.2,16.5,-216.9C45.8,-242.6,91.5,-228.1,116.1,-196.5Z" fill="#313944" />
  </g>
</svg>
  