<?xml version="1.0" standalone="no"?>
<svg
  width="600"
  height="600"
  viewBox="0 0 600 600"
  xmlns="http://www.w3.org/2000/svg"
>
  <g transform="translate(300,300)">
    <path d="M54.7,-58.1C95.3,-59,169.5,-85.2,208.4,-73.6C247.3,-62,250.8,-12.7,215.6,10.5C180.4,33.8,106.5,31,71.4,50C36.4,69,40.3,109.8,24.9,139.2C9.5,168.6,-25.3,186.5,-64.6,189.1C-104,191.7,-148,179,-149.2,146.6C-150.4,114.1,-108.9,61.9,-77.2,34C-45.5,6.2,-23.6,2.7,-35.4,-34.7C-47.2,-72.1,-92.5,-143.3,-92.2,-160.8C-91.9,-178.3,-46,-142.2,-19.5,-111.9C7,-81.6,14.1,-57.2,54.7,-58.1Z" fill="#313944" />
  </g>
</svg>
  