<?xml version="1.0" standalone="no"?>
<svg
  width="600"
  height="600"
  viewBox="0 0 600 600"
  xmlns="http://www.w3.org/2000/svg"
>
  <g transform="translate(300,300)">
    <path d="M87.1,-137.8C122.2,-112.9,166.6,-104.6,186.2,-79.8C205.7,-54.9,200.3,-13.4,198.7,31.7C197,76.8,199,125.5,167.7,124.8C136.4,124.1,71.7,74.1,32.1,65.7C-7.4,57.2,-21.9,90.5,-39.3,100.6C-56.7,110.7,-77.1,97.6,-98.8,80.9C-120.4,64.3,-143.4,44.1,-152.7,18.3C-162.1,-7.5,-157.9,-38.8,-134.4,-49.4C-111,-60,-68.2,-49.8,-42.6,-79.1C-16.9,-108.4,-8.5,-177.2,8.7,-190.8C26,-204.4,51.9,-162.8,87.1,-137.8Z" fill="#313944" />
  </g>
</svg>
  