<?xml version="1.0" standalone="no"?>
<svg
  width="600"
  height="600"
  viewBox="0 0 600 600"
  xmlns="http://www.w3.org/2000/svg"
>
  <g transform="translate(300,300)">
    <path d="M76.4,-128C106.2,-99.6,142.7,-90.7,133.1,-72.4C123.4,-54,67.7,-26.1,47.7,-3.9C27.8,18.4,43.8,35.1,46.3,50.1C48.8,65.2,37.9,78.7,16,110.8C-5.9,143,-38.9,193.8,-59.9,192.8C-80.9,191.7,-89.9,138.7,-111.8,102.8C-133.6,66.9,-168.3,48,-161.6,29.2C-155,10.4,-107.1,-8.3,-91.2,-41C-75.3,-73.8,-91.4,-120.6,-81.6,-158.1C-71.7,-195.6,-35.9,-223.8,-6.3,-214C23.2,-204.2,46.5,-156.3,76.4,-128Z" fill="#313944" />
  </g>
</svg>
  