<?xml version="1.0" standalone="no"?>
<svg
  width="600"
  height="600"
  viewBox="0 0 600 600"
  xmlns="http://www.w3.org/2000/svg"
>
  <g transform="translate(300,300)">
    <path d="M80.9,-98.2C111.7,-106.1,148.2,-95.2,147.3,-74C146.5,-52.9,108.4,-21.4,85.8,-0.2C63.2,20.9,56.2,31.7,51.1,52.8C46.1,73.8,43,105,29.6,115.7C16.2,126.3,-7.5,116.4,-21.5,100C-35.5,83.7,-39.6,60.8,-57.9,46.4C-76.1,32.1,-108.3,26.1,-122.5,10C-136.8,-6.2,-133,-32.6,-126.4,-62.2C-119.8,-91.8,-110.5,-124.5,-88.9,-120.9C-67.4,-117.2,-33.7,-77.1,-4.3,-70.4C25,-63.6,50.1,-90.3,80.9,-98.2Z" fill="#313944" />
  </g>
</svg>
  