<?xml version="1.0" standalone="no"?>
<svg
  width="600"
  height="600"
  viewBox="0 0 600 600"
  xmlns="http://www.w3.org/2000/svg"
>
  <g transform="translate(300,300)">
    <path d="M126.9,-198.7C150.4,-182.4,145.7,-123.4,136.4,-80.8C127,-38.2,113,-12,114,20C115.1,52.1,131.2,89.9,116.7,94.2C102.2,98.6,57,69.4,27.1,66.5C-2.9,63.6,-17.7,87,-42.3,99.9C-66.9,112.9,-101.5,115.4,-138.5,103.1C-175.5,90.8,-214.9,63.7,-205.1,38.1C-195.4,12.6,-136.3,-11.3,-96.9,-22.1C-57.5,-32.8,-37.7,-30.3,-24.8,-51.4C-11.9,-72.5,-5.9,-117.3,22.9,-152.9C51.7,-188.5,103.4,-215,126.9,-198.7Z" fill="#313944" />
  </g>
</svg>
  