<?xml version="1.0" standalone="no"?>
<svg
  width="600"
  height="600"
  viewBox="0 0 600 600"
  xmlns="http://www.w3.org/2000/svg"
>
  <g transform="translate(300,300)">
    <path d="M110.1,-178.2C129.1,-159.2,121.4,-105.6,144.3,-63.5C167.2,-21.5,220.7,9,237.9,49C255.1,88.9,236,138.4,196.6,153.3C157.2,168.2,97.5,148.4,47.6,163.9C-2.3,179.4,-42.4,230.3,-70.4,227.6C-98.4,225,-114.2,168.8,-138.4,127.4C-162.5,86,-195.1,59.4,-204.1,26.6C-213,-6.1,-198.4,-45,-184.1,-87.4C-169.9,-129.7,-156,-175.5,-125.4,-189.2C-94.8,-202.8,-47.4,-184.4,-0.9,-183C45.6,-181.6,91.2,-197.2,110.1,-178.2Z" fill="#2f6178" />
  </g>
</svg>
  