<?xml version="1.0" standalone="no"?>
<svg
  width="600"
  height="600"
  viewBox="0 0 600 600"
  xmlns="http://www.w3.org/2000/svg"
>
  <g transform="translate(300,300)">
    <path d="M113.7,-179.7C132.9,-164.5,124.2,-108.6,136.1,-66.8C148,-25,180.4,2.8,190.2,36.8C200.1,70.8,187.3,111,160.7,136.2C134.1,161.3,93.7,171.3,53.3,184.5C13,197.7,-27.3,214,-54,199.1C-80.6,184.3,-93.6,138.3,-119.3,105.2C-144.9,72.2,-183.3,52,-199.1,21.3C-214.8,-9.3,-207.9,-50.6,-192.1,-88.8C-176.4,-127.1,-151.7,-162.4,-118.2,-171.1C-84.7,-179.8,-42.4,-161.9,2.4,-165.7C47.2,-169.5,94.4,-194.9,113.7,-179.7Z" fill="#383838" />
  </g>
</svg>
  